<svg xmlns="http://www.w3.org/2000/svg" xmlns:xlink="http://www.w3.org/1999/xlink" viewBox="0 0 500 500"><defs><style>.cls-1{fill:url(#GradientFill_1);}.cls-10,.cls-11,.cls-12,.cls-13,.cls-14,.cls-15,.cls-2,.cls-4,.cls-5,.cls-6,.cls-7,.cls-8,.cls-9{fill-rule:evenodd;}.cls-2{fill:url(#GradientFill_4);}.cls-3{fill:url(#GradientFill_4-2);}.cls-4{fill:#f5a900;}.cls-5{fill:url(#GradientFill_4-3);}.cls-6{fill:url(#GradientFill_4-4);}.cls-7{fill:url(#GradientFill_4-5);}.cls-8{fill:url(#GradientFill_4-6);}.cls-9{fill:url(#GradientFill_4-7);}.cls-10{fill:url(#GradientFill_5);}.cls-11{fill:url(#GradientFill_5-2);}.cls-12{fill:url(#GradientFill_5-3);}.cls-13{fill:url(#GradientFill_5-4);}.cls-14{fill:url(#GradientFill_5-5);}.cls-15{fill:#fff;}</style><linearGradient id="GradientFill_1" x1="250" y1="28.6" x2="250" y2="1082.2" gradientUnits="userSpaceOnUse"><stop offset="0" stop-color="#fff000"/><stop offset="1" stop-color="#f08d00"/></linearGradient><linearGradient id="GradientFill_4" x1="615.9" y1="265.72" x2="421.62" y2="232.45" gradientUnits="userSpaceOnUse"><stop offset="0" stop-color="#e95708"/><stop offset="1" stop-color="#fff000"/></linearGradient><linearGradient id="GradientFill_4-2" x1="-16.99" y1="596.42" x2="178.3" y2="320.43" gradientTransform="translate(454.91 49.56) rotate(80.78)" xlink:href="#GradientFill_4"/><linearGradient id="GradientFill_4-3" x1="307.03" y1="346.25" x2="371.38" y2="525.85" xlink:href="#GradientFill_4"/><linearGradient id="GradientFill_4-4" x1="341.78" y1="186.6" x2="468.81" y2="2.64" xlink:href="#GradientFill_4"/><linearGradient id="GradientFill_4-5" x1="255.51" y1="109.83" x2="-15.25" y2="109.83" xlink:href="#GradientFill_4"/><linearGradient id="GradientFill_4-6" x1="24.3" y1="405.63" x2="60.45" y2="454.17" xlink:href="#GradientFill_4"/><linearGradient id="GradientFill_4-7" x1="280.45" y1="281.33" x2="181.68" y2="198.47" xlink:href="#GradientFill_4"/><linearGradient id="GradientFill_5" x1="124.95" y1="53.79" x2="367.46" y2="449.95" gradientUnits="userSpaceOnUse"><stop offset="0" stop-color="#f5a900"/><stop offset="1" stop-color="#e50818"/></linearGradient><linearGradient id="GradientFill_5-2" x1="202.26" y1="62.45" x2="194.74" y2="181.92" xlink:href="#GradientFill_5"/><linearGradient id="GradientFill_5-3" x1="331.06" y1="309.56" x2="335.3" y2="465.49" xlink:href="#GradientFill_5"/><linearGradient id="GradientFill_5-4" x1="256.32" y1="382.48" x2="258.25" y2="429.12" xlink:href="#GradientFill_5"/><linearGradient id="GradientFill_5-5" x1="424.34" y1="159.97" x2="429.82" y2="292.79" xlink:href="#GradientFill_5"/></defs><title>Artboard 1</title><g id="BACKGROUND"><rect class="cls-1" width="500" height="500"/></g><g id="OBJECTS"><path class="cls-2" d="M349.91,177.26a73.23,73.23,0,1,0,103.57,0A73.22,73.22,0,0,0,349.91,177.26Z"/><circle class="cls-3" cx="198.33" cy="292.12" r="151.67" transform="translate(-121.79 441.1) rotate(-80.78)"/><path class="cls-4" d="M80.82,227.27a42,42,0,0,1,15.61-9.91L70.91,242.87a42.29,42.29,0,0,1,9.91-15.6Zm22.62-11.76L69.06,249.88a42.93,42.93,0,0,0-.6,5.76L109.2,214.9a41.22,41.22,0,0,0-5.76.61Zm10.8-.49L68.57,260.68a43.08,43.08,0,0,0,.62,4.54l49.59-49.58a41.25,41.25,0,0,0-4.54-.62Zm8.68,1.63L70.21,269.36c.38,1.29.83,2.56,1.34,3.82L126.73,218q-1.87-.76-3.81-1.35Zm7.34,3L73.18,276.7q.87,1.67,1.89,3.27l58.45-58.45c-1.06-.68-2.15-1.31-3.26-1.89Zm6.29,4L77.2,283c.74,1,1.53,1.89,2.36,2.79L139.35,226c-.91-.84-1.84-1.62-2.8-2.36Zm5.38,4.94L82.14,288.37c.9.84,1.84,1.62,2.8,2.36l59.35-59.35c-.74-1-1.53-1.89-2.36-2.79Zm4.49,5.82L88,292.86c1.07.68,2.16,1.32,3.27,1.89l57.08-57.07q-.87-1.67-1.89-3.27Zm3.52,6.79L94.76,296.38q1.88.76,3.81,1.35L151.28,245c-.38-1.29-.83-2.56-1.34-3.82Zm2.36,8a41,41,0,0,1,.61,4.53l-45.66,45.67a40.93,40.93,0,0,1-4.54-.62l49.59-49.58Zm.73,9.58a42.93,42.93,0,0,1-.6,5.76l-34.38,34.38a42.93,42.93,0,0,1-5.76.6L153,258.74Zm-2.46,12.77A42.38,42.38,0,0,1,125.06,297Z"/><path class="cls-5" d="M166.8,500c10-27.57,40.59-60.43,131.81-48.61C422.05,467.39,424.17,364.9,500,339.7V500Z"/><path class="cls-6" d="M500,166.71C473.67,38.29,336.23,90.24,326.15,0H500Z"/><path class="cls-7" d="M0,219.66c47.92,0,74-42.35,52.2-114.46C37.83,57.61,32.9,26.37,47.51,0H0Z"/><path class="cls-8" d="M49.76,463.78a24,24,0,1,0-24-24A24,24,0,0,0,49.76,463.78Z"/><path class="cls-9" d="M272.34,84.12a1.43,1.43,0,0,0,1.58,2.35,2,2,0,0,0,.3-.21c.7-.61,1.42-1.22,2.14-1.81a1.42,1.42,0,1,0-1.8-2.2c-.75.61-1.49,1.23-2.22,1.87ZM83.94,343.82a1.43,1.43,0,0,0-2.61-.94,1.45,1.45,0,0,0-.22.61c-.11,1-.21,1.91-.3,2.88a1.34,1.34,0,0,0,.24.91,1.42,1.42,0,0,0,2.6-.67c.08-.93.18-1.86.29-2.79ZM83.35,355a1.42,1.42,0,0,0-2.78-.39,1.33,1.33,0,0,0-.06.45c0,1,0,1.93.1,2.9a1.42,1.42,0,0,0,2.8.27,1.54,1.54,0,0,0,0-.43c-.06-.93-.09-1.87-.11-2.8Zm1,11.13a1.36,1.36,0,0,0-.46-.82,1.43,1.43,0,0,0-2.35,1.3c.16.95.34,1.91.53,2.85a1.43,1.43,0,0,0,2.79,0,1.37,1.37,0,0,0,0-.57c-.19-.91-.35-1.84-.51-2.76ZM87,377a1.42,1.42,0,0,0-2.77.59,1.36,1.36,0,0,0,.06.29c.3.92.62,1.83.95,2.74a1.42,1.42,0,0,0,2.76-.46,1.36,1.36,0,0,0-.09-.52c-.32-.88-.62-1.76-.91-2.64Zm4.21,10.35a1.42,1.42,0,1,0-2.54,1.28c.42.86.87,1.72,1.33,2.57a1.42,1.42,0,1,0,2.5-1.36q-.66-1.23-1.29-2.49ZM96.87,397a1.43,1.43,0,0,0-2.6.94,1.6,1.6,0,0,0,.24.66c.55.8,1.11,1.59,1.67,2.37a1.45,1.45,0,0,0,.67.5,1.42,1.42,0,0,0,1.63-2.18c-.55-.76-1.09-1.52-1.61-2.29Zm6.9,8.82a1.43,1.43,0,0,0-2.12,1.91c.65.71,1.3,1.42,2,2.12a1.45,1.45,0,0,0,.87.43,1.43,1.43,0,0,0,1.18-2.41c-.64-.67-1.28-1.36-1.9-2.05Zm8,7.81a1.36,1.36,0,0,0-.45-.26,1.42,1.42,0,0,0-1.38,2.43c.73.63,1.48,1.24,2.24,1.84a1.43,1.43,0,0,0,2-2,1.53,1.53,0,0,0-.28-.29c-.73-.58-1.45-1.17-2.17-1.77Zm9,6.65a1.43,1.43,0,0,0-1.53,2.41c.82.52,1.64,1,2.47,1.52a1.43,1.43,0,0,0,2.14-1.11,1.45,1.45,0,0,0-.69-1.35c-.81-.47-1.6-1-2.39-1.47Zm9.82,5.39A1.43,1.43,0,0,0,129,428a1.33,1.33,0,0,0,.41.29c.88.41,1.76.8,2.65,1.18a1.42,1.42,0,0,0,1.22-2.57c-.87-.41-1.79-.78-2.67-1.2Zm10.44,4.05a1.42,1.42,0,1,0-.84,2.72c.92.29,1.85.56,2.78.82a1.43,1.43,0,0,0,.88-2.71c-.92-.29-1.89-.54-2.82-.83Zm10.9,2.63a1.43,1.43,0,1,0-.48,2.81c.94.16,1.91.32,2.86.44a1.42,1.42,0,1,0,.38-2.82c-.92-.13-1.84-.27-2.76-.43Zm11.14,1.16a1.43,1.43,0,0,0-.45,2.8,2,2,0,0,0,.34.05c1,0,1.93.06,2.9.06a1.43,1.43,0,0,0,.29-2.82,2.4,2.4,0,0,0-.28,0c-.94,0-1.87,0-2.8-.06Zm11.2-.3a1.43,1.43,0,0,0-.13,2.82,1.35,1.35,0,0,0,.4,0c1-.09,1.91-.19,2.87-.31a1.43,1.43,0,0,0,0-2.83h-.35q-1.4.18-2.79.3Zm11.07-1.74a1.42,1.42,0,0,0-1,.88,1.43,1.43,0,0,0,1.65,1.9c.93-.21,1.88-.44,2.81-.68a1.43,1.43,0,0,0-.39-2.81,1.77,1.77,0,0,0-.32.05c-.9.23-1.82.46-2.73.66Zm10.77-3.14a1.43,1.43,0,0,0,.45,2.77,1.47,1.47,0,0,0,.51-.08c.91-.33,1.82-.66,2.71-1a1.42,1.42,0,0,0-.54-2.75,1.39,1.39,0,0,0-.5.1c-.87.34-1.75.67-2.63,1Zm219-259.15a1.43,1.43,0,1,0,2.85.16c.05-1,.09-1.92.12-2.89a1.43,1.43,0,0,0-2.76-.54,1.51,1.51,0,0,0-.09.47c0,.94-.07,1.87-.12,2.8ZM415,158a1.42,1.42,0,1,0,2.84-.21c-.07-1-.15-1.92-.25-2.88a1.43,1.43,0,0,0-2.74-.4,1.47,1.47,0,0,0-.1.69c.1.93.18,1.86.25,2.8Zm-1.51-11.11a1.43,1.43,0,0,0,2.83-.32l0-.25c-.19-.94-.4-1.89-.61-2.82a1.47,1.47,0,0,0-.54-.82,1.42,1.42,0,0,0-2.24,1.46c.21.91.41,1.83.59,2.75ZM410.65,136a1.42,1.42,0,0,0,2.77-.47,1.29,1.29,0,0,0-.07-.43c-.31-.91-.62-1.82-1-2.73a1.43,1.43,0,1,0-2.68,1c.32.88.63,1.77.93,2.65Zm-4.17-10.42a1.42,1.42,0,0,0,2.58-1.21c-.41-.87-.83-1.75-1.27-2.6a1.35,1.35,0,0,0-.69-.66,1.43,1.43,0,0,0-1.85,1.95c.43.82.83,1.68,1.23,2.52Zm-5.34-9.88a1.43,1.43,0,0,0,2.57-1.2,1.4,1.4,0,0,0-.15-.3c-.5-.82-1-1.63-1.54-2.44a1.43,1.43,0,0,0-2.39,1.57c.52.78,1,1.57,1.51,2.37Zm-6.4-9.24a1.42,1.42,0,0,0,2.39-1.52,1.76,1.76,0,0,0-.14-.23c-.59-.76-1.19-1.52-1.8-2.26a1.42,1.42,0,1,0-2.2,1.81c.59.73,1.18,1.46,1.75,2.2ZM387.38,98a1.43,1.43,0,0,0,2.21-1.78l-.16-.2c-.67-.69-1.35-1.37-2-2a1.43,1.43,0,0,0-2.24,1.72,1.28,1.28,0,0,0,.24.32c.67.65,1.33,1.32,2,2Zm-8.22-7.66a1.42,1.42,0,0,0,2-2,1.21,1.21,0,0,0-.16-.16c-.74-.62-1.48-1.23-2.24-1.83A1.42,1.42,0,1,0,377,88.56c.73.58,1.46,1.18,2.18,1.78Zm-9-6.75a1.43,1.43,0,0,0,1.95-2,1.76,1.76,0,0,0-.37-.35c-.8-.53-1.61-1.06-2.42-1.57a1.43,1.43,0,0,0-1.77,2.21,1.33,1.33,0,0,0,.26.21c.79.5,1.57,1,2.35,1.52Zm-9.67-5.7a1.42,1.42,0,0,0,1.42-2.46l-.12-.08c-.86-.44-1.72-.86-2.59-1.28a1.43,1.43,0,0,0-1.45,2.44l.22.13c.85.41,1.69.82,2.52,1.25Zm-10.27-4.53A1.42,1.42,0,0,0,352,71.43a1.47,1.47,0,0,0-.8-.75q-1.36-.5-2.73-1a1.42,1.42,0,0,0-1.33,2.47,1.19,1.19,0,0,0,.43.23c.89.3,1.77.61,2.64.94Zm-10.73-3.21a1.43,1.43,0,0,0,1.15-2.55,1.51,1.51,0,0,0-.52-.23c-.95-.21-1.89-.41-2.84-.6a1.43,1.43,0,0,0-1.45,2.2,1.41,1.41,0,0,0,.92.6c.92.18,1.83.37,2.74.58Zm-11.06-1.74a1.42,1.42,0,0,0,.57-2.77,1.76,1.76,0,0,0-.33-.07c-1-.08-1.93-.14-2.89-.19a1.42,1.42,0,0,0-.42,2.8.9.9,0,0,0,.28,0c.93,0,1.86.11,2.79.19Zm-11.18-.13a1.43,1.43,0,0,0,.32-2.79,1.67,1.67,0,0,0-.5-.06c-1,.07-1.93.14-2.89.24a1.43,1.43,0,0,0,0,2.84h.24c.93-.1,1.86-.17,2.79-.23ZM306.2,69.83a1.43,1.43,0,0,0-.09-2.8,1.63,1.63,0,0,0-.54,0q-1.41.31-2.82.69a1.42,1.42,0,0,0,.33,2.8,1.33,1.33,0,0,0,.4,0c.9-.23,1.81-.45,2.72-.65ZM295.53,73.1a1.43,1.43,0,0,0-.87-2.71l-.19.07c-.89.35-1.8.73-2.68,1.13a1.43,1.43,0,0,0,.9,2.69,2,2,0,0,0,.26-.09c.84-.39,1.72-.75,2.58-1.09Zm-10,4.94a1.42,1.42,0,0,0-.86-2.64,1.37,1.37,0,0,0-.59.19c-.84.5-1.65,1-2.47,1.53a1.44,1.44,0,0,0-.65,1.26,1.43,1.43,0,0,0,2.2,1.13C283.92,79,284.72,78.51,285.51,78Z"/><path class="cls-10" d="M268.76,114.7S241.55,166,202.69,141.81C122.54,92,57.88,155.24,126.33,237c20.75,24.79,12.36,39.61-8.11,64.26-63.78,76.78,34,161.6,106.22,92.74,31.48-30,56-40.05,91.11-25.25,65.76,27.72,128.6-26.81,86-95.45-12.89-20.79-26.26-38.91-7.86-77.39C430.72,118.57,318.26,34.8,268.76,114.7Z"/><path class="cls-11" d="M222,73a25.51,25.51,0,0,0-22.3,13.08h0c-5.93,9.5-13.23,13-21.22,3.51h0a14.55,14.55,0,1,0,0,17.9h0c8-9.44,15.29-6,21.22,3.52h0A25.54,25.54,0,1,0,222,73Z"/><path class="cls-12" d="M310.89,351.28a25.56,25.56,0,0,1,22.31,13.08h0c5.93,9.5,13.23,13,21.22,3.51h0a14.55,14.55,0,1,1,0,17.9h0c-8-9.44-15.29-6-21.22,3.52h0a25.55,25.55,0,1,1-22.31-38Z"/><path class="cls-13" d="M257.31,415.15a8.81,8.81,0,1,0-8.81-8.81A8.82,8.82,0,0,0,257.31,415.15Z"/><path class="cls-14" d="M427.14,253a25.09,25.09,0,1,0-25.08-25.09A25.14,25.14,0,0,0,427.14,253Z"/><path class="cls-15" d="M61.25,155.4a2.61,2.61,0,1,0-2.6-2.61A2.61,2.61,0,0,0,61.25,155.4Z"/><path class="cls-15" d="M71.81,155.4a2.61,2.61,0,1,0-2.61-2.61A2.61,2.61,0,0,0,71.81,155.4Z"/><path class="cls-15" d="M82.36,155.4a2.61,2.61,0,1,0-2.61-2.61A2.61,2.61,0,0,0,82.36,155.4Z"/><path class="cls-15" d="M92.91,155.4a2.61,2.61,0,1,0-2.61-2.61A2.61,2.61,0,0,0,92.91,155.4Z"/><path class="cls-15" d="M114,155.4a2.61,2.61,0,1,0-2.6-2.61A2.61,2.61,0,0,0,114,155.4Z"/><path class="cls-15" d="M124.56,155.4a2.61,2.61,0,1,0-2.6-2.61A2.61,2.61,0,0,0,124.56,155.4Z"/><path class="cls-15" d="M135.11,155.4a2.61,2.61,0,1,0-2.6-2.61A2.61,2.61,0,0,0,135.11,155.4Z"/><path class="cls-15" d="M50.7,166a2.61,2.61,0,1,0-2.6-2.61A2.61,2.61,0,0,0,50.7,166Z"/><path class="cls-15" d="M71.81,166a2.61,2.61,0,1,0-2.61-2.61A2.61,2.61,0,0,0,71.81,166Z"/><path class="cls-15" d="M92.91,166a2.61,2.61,0,1,0-2.61-2.61A2.61,2.61,0,0,0,92.91,166Z"/><path class="cls-15" d="M103.46,166a2.61,2.61,0,1,0-2.61-2.61A2.62,2.62,0,0,0,103.46,166Z"/><path class="cls-15" d="M114,166a2.61,2.61,0,1,0-2.6-2.61A2.61,2.61,0,0,0,114,166Z"/><path class="cls-15" d="M124.56,166a2.61,2.61,0,1,0-2.6-2.61A2.61,2.61,0,0,0,124.56,166Z"/><path class="cls-15" d="M71.81,176.5a2.61,2.61,0,1,0-2.61-2.61A2.61,2.61,0,0,0,71.81,176.5Z"/><path class="cls-15" d="M82.36,176.5a2.61,2.61,0,1,0-2.61-2.61A2.61,2.61,0,0,0,82.36,176.5Z"/><path class="cls-15" d="M92.91,176.5a2.61,2.61,0,1,0-2.61-2.61A2.61,2.61,0,0,0,92.91,176.5Z"/><path class="cls-15" d="M103.46,176.5a2.61,2.61,0,1,0-2.61-2.61A2.62,2.62,0,0,0,103.46,176.5Z"/><path class="cls-15" d="M114,176.5a2.61,2.61,0,1,0-2.6-2.61A2.61,2.61,0,0,0,114,176.5Z"/><path class="cls-15" d="M135.11,176.5a2.61,2.61,0,1,0-2.6-2.61A2.61,2.61,0,0,0,135.11,176.5Z"/><path class="cls-15" d="M145.66,176.5a2.61,2.61,0,1,0-2.6-2.61A2.61,2.61,0,0,0,145.66,176.5Z"/><path class="cls-15" d="M371.63,330a.95.95,0,0,1,0-1.9,2.61,2.61,0,0,0,2.68-2.06,4.74,4.74,0,0,1,7.4-2.53,4.58,4.58,0,0,1,1.64,2.53,2.85,2.85,0,0,0,1,1.52,2.76,2.76,0,0,0,4.41-1.52,4.74,4.74,0,0,1,7.4-2.53,4.58,4.58,0,0,1,1.64,2.53,2.74,2.74,0,0,0,1,1.52,2.76,2.76,0,0,0,4.41-1.52,4.66,4.66,0,0,1,9,0,2.79,2.79,0,0,0,1,1.52,2.85,2.85,0,0,0,1.73.54,2.61,2.61,0,0,0,2.69-2.06,4.66,4.66,0,0,1,9,0,2.79,2.79,0,0,0,1,1.52,3,3,0,0,0,3.46,0,2.79,2.79,0,0,0,1-1.52,4.66,4.66,0,0,1,9,0,2.61,2.61,0,0,0,2.69,2.06,1,1,0,0,1,0,1.9,4.53,4.53,0,0,1-4.52-3.47,2.79,2.79,0,0,0-1-1.52,3,3,0,0,0-3.46,0,2.79,2.79,0,0,0-1,1.52,4.66,4.66,0,0,1-9,0,2.79,2.79,0,0,0-1-1.52,3,3,0,0,0-3.46,0,2.79,2.79,0,0,0-1,1.52,4.66,4.66,0,0,1-9,0,2.79,2.79,0,0,0-1-1.52,2.81,2.81,0,0,0-1.73-.55,2.86,2.86,0,0,0-1.73.55,2.79,2.79,0,0,0-1,1.52,4.61,4.61,0,0,1-1.64,2.53,4.67,4.67,0,0,1-7.4-2.53,2.79,2.79,0,0,0-1-1.52,3,3,0,0,0-3.45,0,2.74,2.74,0,0,0-1,1.52,4.61,4.61,0,0,1-1.64,2.53,4.67,4.67,0,0,1-7.4-2.53,2.79,2.79,0,0,0-1-1.52,3,3,0,0,0-3.45,0,2.73,2.73,0,0,0-1,1.52,4.55,4.55,0,0,1-4.52,3.47Z"/><path class="cls-15" d="M371.63,341.08a.95.95,0,0,1,0-1.9,2.63,2.63,0,0,0,2.68-2.07,4.74,4.74,0,0,1,7.4-2.53,4.61,4.61,0,0,1,1.64,2.53,2.85,2.85,0,0,0,1,1.52,2.76,2.76,0,0,0,4.41-1.52,4.74,4.74,0,0,1,7.4-2.53,4.61,4.61,0,0,1,1.64,2.53,2.74,2.74,0,0,0,1,1.52,2.76,2.76,0,0,0,4.41-1.52,4.67,4.67,0,0,1,1.64-2.53,4.88,4.88,0,0,1,5.76,0,4.67,4.67,0,0,1,1.64,2.53,2.79,2.79,0,0,0,1,1.52,2.86,2.86,0,0,0,1.73.55,2.81,2.81,0,0,0,1.73-.55,2.79,2.79,0,0,0,1-1.52,4.66,4.66,0,0,1,9,0,2.79,2.79,0,0,0,1,1.52,3,3,0,0,0,3.46,0,2.79,2.79,0,0,0,1-1.52,4.66,4.66,0,0,1,9,0,2.79,2.79,0,0,0,1,1.52,2.81,2.81,0,0,0,1.73.55.95.95,0,0,1,0,1.9,4.55,4.55,0,0,1-4.52-3.48,2.79,2.79,0,0,0-1-1.52,3,3,0,0,0-3.46,0,2.79,2.79,0,0,0-1,1.52,4.66,4.66,0,0,1-9,0,2.61,2.61,0,0,0-2.69-2.06,2.83,2.83,0,0,0-1.73.54,2.79,2.79,0,0,0-1,1.52,4.66,4.66,0,0,1-9,0,2.61,2.61,0,0,0-2.69-2.06,2.85,2.85,0,0,0-1.73.54,2.79,2.79,0,0,0-1,1.52,4.54,4.54,0,0,1-1.64,2.53,4.67,4.67,0,0,1-7.4-2.53,2.85,2.85,0,0,0-4.41-1.52,2.74,2.74,0,0,0-1,1.52,4.54,4.54,0,0,1-1.64,2.53,4.67,4.67,0,0,1-7.4-2.53,2.85,2.85,0,0,0-4.41-1.52,2.73,2.73,0,0,0-1,1.52,4.57,4.57,0,0,1-4.52,3.48Z"/></g></svg>